<?xml version="1.0" encoding="UTF-8" standalone="no"?><!DOCTYPE svg PUBLIC "-//W3C//DTD SVG 1.1//EN" "http://www.w3.org/Graphics/SVG/1.1/DTD/svg11.dtd"><svg width="100%" height="100%" viewBox="0 0 16 11" version="1.1" xmlns="http://www.w3.org/2000/svg" xmlns:xlink="http://www.w3.org/1999/xlink" xml:space="preserve" xmlns:serif="http://www.serif.com/" style="fill-rule:evenodd;clip-rule:evenodd;stroke-linejoin:round;stroke-miterlimit:1.41421;"><path d="M15.154,6.292l-12.341,0l3.23,3.23c0.323,0.323 0.323,0.841 0,1.163c-0.161,0.162 -0.37,0.243 -0.586,0.243c-0.216,0 -0.423,-0.081 -0.585,-0.243l-4.63,-4.642c-0.323,-0.323 -0.323,-0.842 0,-1.165l4.636,-4.636c0.324,-0.323 0.842,-0.323 1.165,0c0.323,0.323 0.323,0.841 0,1.164l-3.23,3.23l12.341,0c0.458,0 0.828,0.37 0.828,0.828c0,0.457 -0.37,0.828 -0.828,0.828" style="fill:#0e1c43;"/></svg>