<?xml version="1.0" encoding="UTF-8" standalone="no"?><!DOCTYPE svg PUBLIC "-//W3C//DTD SVG 1.1//EN" "http://www.w3.org/Graphics/SVG/1.1/DTD/svg11.dtd"><svg width="100%" height="100%" viewBox="0 0 58 14" version="1.1" xmlns="http://www.w3.org/2000/svg" xmlns:xlink="http://www.w3.org/1999/xlink" xml:space="preserve" xmlns:serif="http://www.serif.com/" style="fill-rule:evenodd;clip-rule:evenodd;stroke-miterlimit:10;"><g><path d="M19.727,10.215l0,-0.564c0,-0.068 -0.034,-0.102 -0.103,-0.102l-1.173,0c-1.018,0 -1.483,0.29 -1.483,0.939c0,0.581 0.414,0.872 1.207,0.872c1.035,0 1.552,-0.376 1.552,-1.145Zm0.207,2.75c-0.103,0 -0.172,-0.068 -0.172,-0.171l0,-0.546l-0.017,0c-0.432,0.546 -1.156,0.905 -2.295,0.905c-1.483,0 -2.776,-0.768 -2.776,-2.528c0,-1.828 1.397,-2.665 3.466,-2.665l1.484,0c0.069,0 0.103,-0.034 0.103,-0.102l0,-0.308c0,-0.769 -0.379,-1.127 -1.707,-1.127c-0.846,0 -1.467,0.239 -1.863,0.529c-0.086,0.068 -0.172,0.051 -0.224,-0.034l-0.777,-1.349c-0.052,-0.103 -0.034,-0.188 0.052,-0.24c0.707,-0.495 1.725,-0.819 3.105,-0.819c2.725,0 3.708,0.922 3.708,2.989l0,5.295c0,0.103 -0.068,0.171 -0.172,0.171l-1.915,0Z" style="fill:#fff;fill-rule:nonzero;stroke:#fff;stroke-width:0.24px;"/><path d="M26.43,13.068c-1.933,0 -2.657,-0.854 -2.657,-2.751l0,-3.758c0,-0.068 -0.035,-0.102 -0.103,-0.102l-0.518,0c-0.103,0 -0.172,-0.068 -0.172,-0.171l0,-1.418c0,-0.102 0.069,-0.171 0.172,-0.171l0.518,0c0.068,0 0.103,-0.034 0.103,-0.102l0,-2.221c0,-0.102 0.069,-0.171 0.173,-0.171l2.052,0c0.104,0 0.173,0.069 0.173,0.171l0,2.221c0,0.068 0.034,0.102 0.103,0.102l1.07,0c0.103,0 0.172,0.069 0.172,0.171l0,1.418c0,0.103 -0.069,0.171 -0.172,0.171l-1.07,0c-0.069,0 -0.103,0.034 -0.103,0.102l0,3.656c0,0.615 0.207,0.82 0.759,0.82l0.414,0c0.103,0 0.172,0.068 0.172,0.171l0,1.691c0,0.102 -0.069,0.171 -0.172,0.171l-0.914,0Z" style="fill:#fff;fill-rule:nonzero;stroke:#fff;stroke-width:0.24px;"/><path d="M33.528,10.215l0,-0.564c0,-0.068 -0.034,-0.102 -0.104,-0.102l-1.172,0c-1.018,0 -1.484,0.29 -1.484,0.939c0,0.581 0.414,0.872 1.208,0.872c1.034,0 1.552,-0.376 1.552,-1.145Zm0.207,2.75c-0.104,0 -0.172,-0.068 -0.172,-0.171l0,-0.546l-0.018,0c-0.431,0.546 -1.155,0.905 -2.294,0.905c-1.483,0 -2.777,-0.768 -2.777,-2.528c0,-1.828 1.397,-2.665 3.467,-2.665l1.483,0c0.07,0 0.104,-0.034 0.104,-0.102l0,-0.308c0,-0.769 -0.38,-1.127 -1.708,-1.127c-0.845,0 -1.466,0.239 -1.862,0.529c-0.087,0.068 -0.173,0.051 -0.225,-0.034l-0.776,-1.349c-0.052,-0.103 -0.034,-0.188 0.052,-0.24c0.707,-0.495 1.725,-0.819 3.105,-0.819c2.725,0 3.708,0.922 3.708,2.989l0,5.295c0,0.103 -0.069,0.171 -0.172,0.171l-1.915,0Z" style="fill:#fff;fill-rule:nonzero;stroke:#fff;stroke-width:0.24px;"/><path d="M37.253,1.52c0,-0.102 0.069,-0.171 0.173,-0.171l2.052,0c0.138,0 0.225,0.051 0.276,0.171l2.967,6.628l0.069,0l2.915,-6.628c0.052,-0.12 0.138,-0.171 0.276,-0.171l2.018,0c0.104,0 0.173,0.069 0.173,0.171l0,11.274c0,0.103 -0.069,0.171 -0.173,0.171l-1.949,0c-0.103,0 -0.172,-0.068 -0.172,-0.171l0,-6.542l-0.069,0l-2.174,4.903c-0.069,0.153 -0.172,0.222 -0.328,0.222l-1.19,0c-0.155,0 -0.258,-0.069 -0.327,-0.222l-2.174,-4.903l-0.069,0l0,6.542c0,0.103 -0.069,0.171 -0.172,0.171l-1.949,0c-0.104,0 -0.173,-0.068 -0.173,-0.171l0,-11.274Z" style="fill:#fff;fill-rule:nonzero;stroke:#fff;stroke-width:0.24px;"/><path d="M54.527,7.96c0.069,0 0.103,-0.034 0.103,-0.102c0,-0.256 -0.034,-0.445 -0.086,-0.615c-0.19,-0.564 -0.707,-0.906 -1.397,-0.906c-0.691,0 -1.208,0.342 -1.397,0.906c-0.052,0.17 -0.086,0.359 -0.086,0.615c0,0.068 0.034,0.102 0.103,0.102l2.76,0Zm-4.968,2.836c-0.173,-0.513 -0.293,-1.111 -0.293,-1.965c0,-0.871 0.103,-1.469 0.276,-1.981c0.483,-1.486 1.811,-2.34 3.587,-2.34c1.846,0 3.122,0.871 3.606,2.323c0.172,0.546 0.275,1.144 0.275,2.545c0,0.102 -0.069,0.171 -0.189,0.171l-5.054,0c-0.069,0 -0.103,0.034 -0.103,0.102c0.016,0.171 0.051,0.325 0.103,0.461c0.224,0.718 0.862,1.094 1.725,1.094c0.828,0 1.432,-0.291 1.914,-0.735c0.086,-0.068 0.173,-0.085 0.242,0l1.138,1.059c0.086,0.069 0.086,0.171 0.017,0.24c-0.793,0.837 -2.017,1.383 -3.553,1.383c-1.897,0 -3.208,-0.871 -3.691,-2.357" style="fill:#fff;fill-rule:nonzero;"/><path d="M54.527,7.96c0.069,0 0.103,-0.034 0.103,-0.102c0,-0.256 -0.034,-0.445 -0.086,-0.615c-0.19,-0.564 -0.707,-0.906 -1.397,-0.906c-0.691,0 -1.208,0.342 -1.397,0.906c-0.052,0.17 -0.086,0.359 -0.086,0.615c0,0.068 0.034,0.102 0.103,0.102l2.76,0Zm-4.968,2.836c-0.173,-0.513 -0.293,-1.111 -0.293,-1.965c0,-0.871 0.103,-1.469 0.276,-1.981c0.483,-1.486 1.811,-2.34 3.587,-2.34c1.846,0 3.122,0.871 3.606,2.323c0.172,0.546 0.275,1.144 0.275,2.545c0,0.102 -0.069,0.171 -0.189,0.171l-5.054,0c-0.069,0 -0.103,0.034 -0.103,0.102c0.016,0.171 0.051,0.325 0.103,0.461c0.224,0.718 0.862,1.094 1.725,1.094c0.828,0 1.432,-0.291 1.914,-0.735c0.086,-0.068 0.173,-0.085 0.242,0l1.138,1.059c0.086,0.069 0.086,0.171 0.017,0.24c-0.793,0.837 -2.017,1.383 -3.553,1.383c-1.897,0 -3.208,-0.871 -3.691,-2.357Z" style="fill:#fff;fill-rule:nonzero;stroke:#fff;stroke-width:0.24px;"/><path d="M2.95,3.481c-0.027,0 -0.048,-0.021 -0.048,-0.047l0,-1.919c0,-0.026 0.021,-0.047 0.048,-0.047l1.937,0c0.026,0 0.048,0.021 0.048,0.047l0,1.919c0,0.026 -0.022,0.047 -0.048,0.047l-1.937,0Z" style="fill:#fff;fill-rule:nonzero;"/><path d="M4.887,1.349l-1.937,0c-0.093,0 -0.168,0.074 -0.168,0.166l0,1.918c0,0.092 0.075,0.166 0.168,0.166l1.937,0c0.093,0 0.167,-0.074 0.167,-0.166l0,-1.918c0,-0.092 -0.074,-0.166 -0.167,-0.166m-0.072,2.013l-1.793,0l0,-1.776l1.793,0l0,1.776Z" style="fill:#fff;fill-rule:nonzero;"/><path d="M1.58,0.993c-0.026,0 -0.048,-0.021 -0.048,-0.047l0,-0.788c0,-0.026 0.022,-0.047 0.048,-0.047l0.795,0c0.026,0 0.048,0.021 0.048,0.047l0,0.788c0,0.026 -0.022,0.047 -0.048,0.047l-0.795,0Z" style="fill:#fff;fill-rule:nonzero;"/><path d="M2.375,-0.008l-0.795,0c-0.093,0 -0.168,0.074 -0.168,0.166l0,0.788c0,0.091 0.075,0.166 0.168,0.166l0.795,0c0.093,0 0.167,-0.075 0.167,-0.166l0,-0.788c0,-0.092 -0.074,-0.166 -0.167,-0.166m-0.072,0.883l-0.651,0l0,-0.646l0.651,0l0,0.646Z" style="fill:#fff;fill-rule:nonzero;"/><path d="M0.209,2.35c-0.026,0 -0.047,-0.021 -0.047,-0.047l0,-0.788c0,-0.026 0.021,-0.047 0.047,-0.047l0.796,0c0.026,0 0.048,0.021 0.048,0.047l0,0.788c0,0.026 -0.022,0.047 -0.048,0.047l-0.796,0Z" style="fill:#fff;fill-rule:nonzero;"/><path d="M1.005,1.349l-0.796,0c-0.092,0 -0.167,0.074 -0.167,0.166l0,0.788c0,0.091 0.075,0.166 0.167,0.166l0.796,0c0.092,0 0.168,-0.075 0.168,-0.166l0,-0.788c0,-0.092 -0.076,-0.166 -0.168,-0.166m-0.072,0.883l-0.652,0l0,-0.646l0.652,0l0,0.646Z" style="fill:#fff;fill-rule:nonzero;"/><path d="M5.054,4.316c0,-0.393 -0.322,-0.713 -0.719,-0.713l0.719,-0.736c0,0.394 0.323,0.718 0.72,0.718l-0.72,0.731Z" style="fill:#fff;fill-rule:nonzero;stroke:#fff;stroke-width:0.24px;"/><path d="M13.644,3.963c-0.569,-1.743 -2.001,-2.614 -4.053,-2.614l-2.099,0c-0.089,0 -0.16,0.068 -0.168,0.154c0,0.005 0,2.084 0,2.084l1.995,0c1.173,0 1.881,0.341 2.174,1.281c0.12,0.342 0.19,0.786 0.19,2.289c0,1.504 -0.07,1.948 -0.19,2.289c-0.293,0.94 -1.001,1.282 -2.174,1.282l-1.894,0c-0.069,0 -0.104,-0.034 -0.104,-0.103l0,-6.819l0,-0.116l0,-0.103l-2.266,0l0,9.208c0,0.102 0.069,0.17 0.172,0.17l4.364,0c2.052,0 3.484,-0.871 4.053,-2.613c0.207,-0.65 0.311,-1.298 0.311,-3.195c0,-1.896 -0.104,-2.545 -0.311,-3.194" style="fill:#fff;fill-rule:nonzero;"/><path d="M13.644,3.963c-0.569,-1.743 -2.001,-2.614 -4.053,-2.614l-2.099,0c-0.089,0 -0.16,0.068 -0.168,0.154c0,0.005 0,2.084 0,2.084l1.995,0c1.173,0 1.881,0.341 2.174,1.281c0.12,0.342 0.19,0.786 0.19,2.289c0,1.504 -0.07,1.948 -0.19,2.289c-0.293,0.94 -1.001,1.282 -2.174,1.282l-1.894,0c-0.069,0 -0.104,-0.034 -0.104,-0.103l0,-6.819l0,-0.116l0,-0.103l-2.266,0l0,9.208c0,0.102 0.069,0.17 0.172,0.17l4.364,0c2.052,0 3.484,-0.871 4.053,-2.613c0.207,-0.65 0.311,-1.298 0.311,-3.195c0,-1.896 -0.104,-2.545 -0.311,-3.194Z" style="fill:#fff;fill-rule:nonzero;stroke:#fff;stroke-width:0.24px;"/></g></svg>