<?xml version="1.0" encoding="UTF-8" standalone="no"?><!DOCTYPE svg PUBLIC "-//W3C//DTD SVG 1.1//EN" "http://www.w3.org/Graphics/SVG/1.1/DTD/svg11.dtd"><svg width="100%" height="100%" viewBox="0 0 69 18" version="1.1" xmlns="http://www.w3.org/2000/svg" xmlns:xlink="http://www.w3.org/1999/xlink" xml:space="preserve" xmlns:serif="http://www.serif.com/" style="fill-rule:evenodd;clip-rule:evenodd;stroke-miterlimit:10;"><path d="M24.698,11.686l0,-0.57c0,-0.07 -0.035,-0.104 -0.104,-0.104l-1.175,0c-1.02,0 -1.486,0.293 -1.486,0.95c0,0.588 0.414,0.882 1.21,0.882c1.036,0 1.555,-0.381 1.555,-1.158Zm0.207,2.782c-0.104,0 -0.173,-0.069 -0.173,-0.173l0,-0.553l-0.017,0c-0.432,0.553 -1.158,0.916 -2.299,0.916c-1.486,0 -2.782,-0.777 -2.782,-2.557c0,-1.85 1.4,-2.696 3.474,-2.696l1.486,0c0.069,0 0.104,-0.035 0.104,-0.104l0,-0.311c0,-0.778 -0.38,-1.141 -1.711,-1.141c-0.847,0 -1.469,0.242 -1.867,0.536c-0.086,0.069 -0.172,0.052 -0.224,-0.034l-0.778,-1.366c-0.052,-0.104 -0.035,-0.19 0.052,-0.242c0.708,-0.501 1.728,-0.829 3.111,-0.829c2.73,0 3.715,0.933 3.715,3.024l0,5.357c0,0.104 -0.069,0.173 -0.173,0.173l-1.918,0Z" style="fill:#0e1c43;fill-rule:nonzero;stroke:#fff;stroke-width:0.24px;"/><path d="M31.413,14.572c-1.936,0 -2.662,-0.864 -2.662,-2.783l0,-3.801c0,-0.07 -0.035,-0.104 -0.103,-0.104l-0.519,0c-0.104,0 -0.173,-0.069 -0.173,-0.173l0,-1.434c0,-0.104 0.069,-0.173 0.173,-0.173l0.519,0c0.068,0 0.103,-0.035 0.103,-0.104l0,-2.247c0,-0.103 0.069,-0.172 0.173,-0.172l2.056,0c0.104,0 0.173,0.069 0.173,0.172l0,2.247c0,0.069 0.034,0.104 0.104,0.104l1.071,0c0.104,0 0.173,0.069 0.173,0.173l0,1.434c0,0.104 -0.069,0.173 -0.173,0.173l-1.071,0c-0.07,0 -0.104,0.034 -0.104,0.104l0,3.698c0,0.622 0.208,0.829 0.761,0.829l0.414,0c0.104,0 0.173,0.069 0.173,0.173l0,1.711c0,0.104 -0.069,0.173 -0.173,0.173l-0.915,0Z" style="fill:#0e1c43;fill-rule:nonzero;stroke:#fff;stroke-width:0.24px;"/><path d="M38.524,11.686l0,-0.57c0,-0.07 -0.034,-0.104 -0.103,-0.104l-1.175,0c-1.02,0 -1.486,0.293 -1.486,0.95c0,0.588 0.414,0.882 1.209,0.882c1.037,0 1.555,-0.381 1.555,-1.158Zm0.208,2.782c-0.104,0 -0.173,-0.069 -0.173,-0.173l0,-0.553l-0.017,0c-0.432,0.553 -1.158,0.916 -2.298,0.916c-1.487,0 -2.783,-0.777 -2.783,-2.557c0,-1.85 1.4,-2.696 3.473,-2.696l1.487,0c0.069,0 0.103,-0.035 0.103,-0.104l0,-0.311c0,-0.778 -0.38,-1.141 -1.71,-1.141c-0.847,0 -1.469,0.242 -1.866,0.536c-0.087,0.069 -0.174,0.052 -0.226,-0.034l-0.777,-1.366c-0.052,-0.104 -0.035,-0.19 0.052,-0.242c0.709,-0.501 1.728,-0.829 3.111,-0.829c2.73,0 3.715,0.933 3.715,3.024l0,5.357c0,0.104 -0.069,0.173 -0.173,0.173l-1.918,0Z" style="fill:#0e1c43;fill-rule:nonzero;stroke:#fff;stroke-width:0.24px;"/><path d="M42.257,2.889c0,-0.103 0.069,-0.173 0.173,-0.173l2.056,0c0.138,0 0.225,0.053 0.277,0.173l2.972,6.706l0.069,0l2.921,-6.706c0.052,-0.12 0.138,-0.173 0.276,-0.173l2.022,0c0.104,0 0.173,0.07 0.173,0.173l0,11.406c0,0.104 -0.069,0.173 -0.173,0.173l-1.953,0c-0.103,0 -0.172,-0.069 -0.172,-0.173l0,-6.619l-0.069,0l-2.178,4.96c-0.069,0.156 -0.173,0.225 -0.328,0.225l-1.193,0c-0.155,0 -0.259,-0.069 -0.328,-0.225l-2.178,-4.96l-0.069,0l0,6.619c0,0.104 -0.069,0.173 -0.173,0.173l-1.952,0c-0.104,0 -0.173,-0.069 -0.173,-0.173l0,-11.406Z" style="fill:#0e1c43;fill-rule:nonzero;stroke:#fff;stroke-width:0.24px;"/><path d="M59.563,9.405c0.069,0 0.104,-0.035 0.104,-0.104c0,-0.259 -0.035,-0.45 -0.087,-0.622c-0.19,-0.57 -0.708,-0.916 -1.399,-0.916c-0.692,0 -1.21,0.346 -1.4,0.916c-0.052,0.172 -0.086,0.363 -0.086,0.622c0,0.069 0.034,0.104 0.103,0.104l2.765,0Zm-4.977,2.868c-0.173,-0.518 -0.294,-1.123 -0.294,-1.987c0,-0.881 0.104,-1.486 0.277,-2.005c0.484,-1.503 1.814,-2.367 3.594,-2.367c1.849,0 3.128,0.881 3.612,2.35c0.173,0.553 0.276,1.158 0.276,2.575c0,0.104 -0.068,0.173 -0.189,0.173l-5.064,0c-0.069,0 -0.103,0.034 -0.103,0.104c0.016,0.172 0.051,0.328 0.103,0.466c0.225,0.726 0.864,1.106 1.729,1.106c0.829,0 1.434,-0.294 1.918,-0.743c0.086,-0.069 0.172,-0.086 0.242,0l1.14,1.071c0.086,0.07 0.086,0.173 0.017,0.242c-0.795,0.847 -2.021,1.4 -3.56,1.4c-1.901,0 -3.214,-0.881 -3.698,-2.385" style="fill:#0e1c43;fill-rule:nonzero;"/><path d="M59.563,9.405c0.069,0 0.104,-0.035 0.104,-0.104c0,-0.259 -0.035,-0.45 -0.087,-0.622c-0.19,-0.57 -0.708,-0.916 -1.399,-0.916c-0.692,0 -1.21,0.346 -1.4,0.916c-0.052,0.172 -0.086,0.363 -0.086,0.622c0,0.069 0.034,0.104 0.103,0.104l2.765,0Zm-4.977,2.868c-0.173,-0.518 -0.294,-1.123 -0.294,-1.987c0,-0.881 0.104,-1.486 0.277,-2.005c0.484,-1.503 1.814,-2.367 3.594,-2.367c1.849,0 3.128,0.881 3.612,2.35c0.173,0.553 0.276,1.158 0.276,2.575c0,0.104 -0.068,0.173 -0.189,0.173l-5.064,0c-0.069,0 -0.103,0.034 -0.103,0.104c0.016,0.172 0.051,0.328 0.103,0.466c0.225,0.726 0.864,1.106 1.729,1.106c0.829,0 1.434,-0.294 1.918,-0.743c0.086,-0.069 0.172,-0.086 0.242,0l1.14,1.071c0.086,0.07 0.086,0.173 0.017,0.242c-0.795,0.847 -2.021,1.4 -3.56,1.4c-1.901,0 -3.214,-0.881 -3.698,-2.385Z" style="fill:none;stroke:#fff;stroke-width:0.24px;"/><path d="M7.888,4.873c-0.026,0 -0.048,-0.021 -0.048,-0.048l0,-1.94c0,-0.027 0.022,-0.048 0.048,-0.048l1.941,0c0.026,0 0.048,0.021 0.048,0.048l0,1.94c0,0.027 -0.022,0.048 -0.048,0.048l-1.941,0Z" style="fill:#0e1c43;fill-rule:nonzero;"/><path d="M9.829,2.717l-1.941,0c-0.093,0 -0.168,0.075 -0.168,0.168l0,1.94c0,0.093 0.075,0.168 0.168,0.168l1.941,0c0.093,0 0.168,-0.075 0.168,-0.168l0,-1.94c0,-0.093 -0.075,-0.168 -0.168,-0.168m-0.072,2.036l-1.797,0l0,-1.796l1.797,0l0,1.796Z" style="fill:#fff;fill-rule:nonzero;"/><path d="M6.515,2.357c-0.026,0 -0.047,-0.022 -0.047,-0.048l0,-0.797c0,-0.027 0.021,-0.048 0.047,-0.048l0.797,0c0.027,0 0.048,0.021 0.048,0.048l0,0.797c0,0.026 -0.021,0.048 -0.048,0.048l-0.797,0Z" style="fill:#0e1c43;fill-rule:nonzero;"/><path d="M7.312,1.344l-0.796,0c-0.093,0 -0.168,0.075 -0.168,0.168l0,0.797c0,0.092 0.075,0.168 0.168,0.168l0.796,0c0.093,0 0.168,-0.076 0.168,-0.168l0,-0.797c0,-0.093 -0.075,-0.168 -0.168,-0.168m-0.072,0.893l-0.652,0l0,-0.653l0.652,0l0,0.653Z" style="fill:#fff;fill-rule:nonzero;"/><path d="M5.142,3.729c-0.026,0 -0.047,-0.021 -0.047,-0.048l0,-0.797c0,-0.026 0.021,-0.048 0.047,-0.048l0.797,0c0.027,0 0.049,0.022 0.049,0.048l0,0.797c0,0.027 -0.022,0.048 -0.049,0.048l-0.797,0Z" style="fill:#0e1c43;fill-rule:nonzero;"/><path d="M5.939,2.717l-0.796,0c-0.093,0 -0.168,0.075 -0.168,0.168l0,0.796c0,0.093 0.075,0.168 0.168,0.168l0.796,0c0.093,0 0.169,-0.075 0.169,-0.168l0,-0.796c0,-0.093 -0.076,-0.168 -0.169,-0.168m-0.071,0.892l-0.653,0l0,-0.652l0.653,0l0,0.652Z" style="fill:#fff;fill-rule:nonzero;"/><path d="M9.997,5.718c0,-0.398 -0.323,-0.721 -0.721,-0.721l0.721,-0.745c0,0.398 0.323,0.726 0.721,0.726l-0.721,0.74Z" style="fill:#0e1c43;fill-rule:nonzero;stroke:#fff;stroke-width:0.24px;"/><path d="M18.603,5.361c-0.57,-1.763 -2.005,-2.645 -4.061,-2.645l-2.103,0c-0.089,0 -0.16,0.069 -0.168,0.156c0,0.005 0,2.109 0,2.109l1.999,0c1.175,0 1.884,0.345 2.177,1.296c0.121,0.345 0.191,0.795 0.191,2.315c0,1.521 -0.07,1.97 -0.191,2.316c-0.293,0.95 -1.002,1.296 -2.177,1.296l-1.899,0c-0.068,0 -0.103,-0.034 -0.103,-0.104l0,-6.898l0,-0.118l0,-0.103l-2.271,0l0,9.314c0,0.104 0.069,0.173 0.173,0.173l4.372,0c2.056,0 3.491,-0.881 4.061,-2.644c0.207,-0.657 0.311,-1.313 0.311,-3.232c0,-1.918 -0.104,-2.575 -0.311,-3.231" style="fill:#0e1c43;fill-rule:nonzero;"/><path d="M18.603,5.361c-0.57,-1.763 -2.005,-2.645 -4.061,-2.645l-2.103,0c-0.089,0 -0.16,0.069 -0.168,0.156c0,0.005 0,2.109 0,2.109l1.999,0c1.175,0 1.884,0.345 2.177,1.296c0.121,0.345 0.191,0.795 0.191,2.315c0,1.521 -0.07,1.97 -0.191,2.316c-0.293,0.95 -1.002,1.296 -2.177,1.296l-1.899,0c-0.068,0 -0.103,-0.034 -0.103,-0.104l0,-6.898l0,-0.118l0,-0.103l-2.271,0l0,9.314c0,0.104 0.069,0.173 0.173,0.173l4.372,0c2.056,0 3.491,-0.881 4.061,-2.644c0.207,-0.657 0.311,-1.313 0.311,-3.232c0,-1.918 -0.104,-2.575 -0.311,-3.231Z" style="fill:none;stroke:#fff;stroke-width:0.24px;"/></svg>