<?xml version="1.0" encoding="UTF-8" standalone="no"?><!DOCTYPE svg PUBLIC "-//W3C//DTD SVG 1.1//EN" "http://www.w3.org/Graphics/SVG/1.1/DTD/svg11.dtd"><svg width="100%" height="100%" viewBox="0 0 45 45" version="1.1" xmlns="http://www.w3.org/2000/svg" xmlns:xlink="http://www.w3.org/1999/xlink" xml:space="preserve" xmlns:serif="http://www.serif.com/" style="fill-rule:evenodd;clip-rule:evenodd;stroke-linejoin:round;stroke-miterlimit:1.41421;"><g id="Слой-1" serif:id="Слой 1"><path d="M22.499,43.239c-11.437,0 -20.741,-9.304 -20.741,-20.74c0,-11.437 9.304,-20.741 20.741,-20.741c11.437,0 20.74,9.304 20.74,20.741c0,11.436 -9.303,20.74 -20.74,20.74m15.909,-36.649c-4.25,-4.25 -9.9,-6.59 -15.909,-6.59c-6.01,0 -11.66,2.34 -15.909,6.59c-4.25,4.249 -6.59,9.899 -6.59,15.909c0,6.009 2.34,11.659 6.59,15.909c4.249,4.249 9.899,6.589 15.909,6.589c6.009,0 11.659,-2.34 15.909,-6.589c4.249,-4.25 6.589,-9.9 6.589,-15.909c0,-6.01 -2.34,-11.66 -6.589,-15.909" style="fill:#354a8a;fill-rule:nonzero;"/><path d="M40.375,25.513c-0.474,-0.104 -0.942,0.198 -1.046,0.672c-1.467,6.734 -6.787,11.927 -13.555,13.228c-0.476,0.093 -0.789,0.553 -0.697,1.031c0.082,0.419 0.449,0.712 0.862,0.712c0.055,0 0.111,-0.005 0.168,-0.016c3.647,-0.701 6.986,-2.451 9.657,-5.062c2.668,-2.604 4.494,-5.896 5.283,-9.519c0.103,-0.474 -0.198,-0.943 -0.672,-1.046" style="fill:#ff3444;fill-rule:nonzero;"/><path d="M19.92,4.555c-0.091,-0.477 -0.552,-0.789 -1.029,-0.697c-3.648,0.702 -6.987,2.452 -9.658,5.061c-2.667,2.606 -4.493,5.898 -5.282,9.52c-0.104,0.475 0.197,0.943 0.671,1.046c0.063,0.014 0.126,0.021 0.188,0.021c0.404,0 0.768,-0.281 0.858,-0.693c1.467,-6.734 6.789,-11.927 13.555,-13.229c0.477,-0.092 0.789,-0.553 0.697,-1.029" style="fill:#ff3444;fill-rule:nonzero;"/><path d="M4.815,25.165c-0.477,0.092 -0.789,0.553 -0.697,1.029c0.702,3.649 2.451,6.988 5.061,9.659c2.605,2.666 5.898,4.493 9.52,5.282c0.475,0.103 0.943,-0.197 1.046,-0.671c0.014,-0.064 0.021,-0.126 0.021,-0.189c0,-0.404 -0.281,-0.767 -0.693,-0.857c-6.734,-1.468 -11.927,-6.789 -13.229,-13.556c-0.092,-0.476 -0.553,-0.789 -1.029,-0.697" style="fill:#ff3444;fill-rule:nonzero;"/><path d="M26.199,5.584c6.768,1.302 12.088,6.495 13.556,13.229c0.09,0.412 0.454,0.693 0.858,0.693c0.062,0 0.125,-0.007 0.188,-0.021c0.474,-0.103 0.775,-0.571 0.671,-1.046c-0.789,-3.622 -2.616,-6.914 -5.283,-9.52c-2.67,-2.609 -6.01,-4.359 -9.658,-5.061c-0.477,-0.092 -0.937,0.22 -1.028,0.697c-0.093,0.476 0.219,0.937 0.696,1.029" style="fill:#ff3444;fill-rule:nonzero;"/><path d="M22.499,23.731c-0.679,0 -1.23,-0.553 -1.23,-1.231c0,-0.679 0.551,-1.23 1.23,-1.23c0.679,0 1.231,0.551 1.231,1.23c0,0.678 -0.552,1.231 -1.231,1.231m0,-4.22c-1.648,0 -2.988,1.341 -2.988,2.989c0,1.646 1.34,2.987 2.988,2.987c1.646,0 2.987,-1.341 2.987,-2.987c0,-1.648 -1.341,-2.989 -2.987,-2.989" style="fill:#ff3444;fill-rule:nonzero;"/><path d="M22.513,3.516c-0.485,0 -0.879,0.393 -0.879,0.878l0,1.97c0,0.485 0.394,0.879 0.879,0.879c0.485,0 0.878,-0.394 0.878,-0.879l0,-1.97c0,-0.485 -0.393,-0.878 -0.878,-0.878" style="fill:#ff3444;fill-rule:nonzero;"/><path d="M22.486,37.129c-0.485,0 -0.879,0.394 -0.879,0.879l0,2.596c0,0.486 0.394,0.879 0.879,0.879c0.485,0 0.877,-0.393 0.877,-0.879l0,-2.596c0,-0.485 -0.392,-0.879 -0.877,-0.879" style="fill:#ff3444;fill-rule:nonzero;"/><path d="M40.604,21.633l-2.373,0c-0.485,0 -0.88,0.394 -0.88,0.879c0.001,0.486 0.395,0.878 0.88,0.878l2.373,0c0.486,0 0.879,-0.392 0.879,-0.878c0,-0.485 -0.393,-0.879 -0.879,-0.879" style="fill:#ff3444;fill-rule:nonzero;"/><path d="M6.943,21.607l-2.548,0c-0.486,0 -0.879,0.394 -0.879,0.879c0,0.485 0.393,0.877 0.879,0.877l2.548,0c0.486,0 0.879,-0.392 0.879,-0.877c0,-0.485 -0.393,-0.879 -0.879,-0.879" style="fill:#ff3444;fill-rule:nonzero;"/><path d="M20.39,21.62l-6.014,0c-0.485,0 -0.879,0.394 -0.879,0.879c0,0.485 0.394,0.878 0.879,0.878l6.014,0c0.485,0 0.879,-0.393 0.879,-0.878c0,-0.485 -0.394,-0.879 -0.879,-0.879" style="fill:#ff3444;fill-rule:nonzero;"/><path d="M22.499,10.279c-0.485,0 -0.879,0.394 -0.879,0.879l0,9.232c0,0.485 0.394,0.879 0.879,0.879c0.485,0 0.878,-0.394 0.878,-0.879l0,-9.232c0,-0.485 -0.393,-0.879 -0.878,-0.879" style="fill:#ff3444;fill-rule:nonzero;"/></g></svg>