<?xml version="1.0" encoding="UTF-8" standalone="no"?><!DOCTYPE svg PUBLIC "-//W3C//DTD SVG 1.1//EN" "http://www.w3.org/Graphics/SVG/1.1/DTD/svg11.dtd"><svg width="100%" height="100%" viewBox="0 0 127 171" version="1.1" xmlns="http://www.w3.org/2000/svg" xmlns:xlink="http://www.w3.org/1999/xlink" xml:space="preserve" xmlns:serif="http://www.serif.com/" style="fill-rule:evenodd;clip-rule:evenodd;stroke-linecap:round;stroke-linejoin:round;stroke-miterlimit:10;"><g id="Слой-1" serif:id="Слой 1"><path d="M15,23.725l0,-4.362c0,-3.314 2.687,-6 6,-6l85,0c3.313,0 6,2.686 6,6l0,132.275c0,3.314 -2.687,6 -6,6l-6,0" style="fill:none;stroke:#0e1c43;stroke-width:6px;"/><path d="M27,13.362l0,-4.362c0,-3.314 2.687,-6 6,-6l85,0c3.313,0 6,2.686 6,6l0,132.275c0,3.314 -2.687,6 -6,6l-6,0" style="fill:none;stroke:#0e1c43;stroke-width:6px;"/><path d="M100,162c0,3.313 -2.687,6 -6,6l-85,0c-3.313,0 -6,-2.687 -6,-6l0,-132.275c0,-3.314 2.687,-6 6,-6l85,0c3.313,0 6,2.686 6,6l0,132.275Z" style="fill:none;stroke:#ff3444;stroke-width:6px;stroke-linecap:butt;stroke-linejoin:miter;"/><path d="M13,49.167l17,-0.001" style="fill:none;stroke:#ff3444;stroke-width:6px;"/><path d="M46.834,49.167l43.167,-0.001" style="fill:none;stroke:#ff3444;stroke-width:6px;"/><path d="M90,61.167l-52.5,-0.001" style="fill:none;stroke:#ff3444;stroke-width:6px;"/><path d="M15,83.166l75,0" style="fill:none;stroke:#ff3444;stroke-width:6px;"/><path d="M15,95.166l75,0" style="fill:none;stroke:#ff3444;stroke-width:6px;"/><path d="M15,107.166l75,0" style="fill:none;stroke:#ff3444;stroke-width:6px;"/><path d="M15,119.166l36.5,0" style="fill:none;stroke:#ff3444;stroke-width:6px;"/><path d="M33,139.416c0,-4.553 -3.697,-8.25 -8.25,-8.25c-4.553,0 -8.25,3.697 -8.25,8.25c0,4.553 3.697,8.25 8.25,8.25c4.553,0 8.25,-3.697 8.25,-8.25Z" style="fill:none;stroke:#ff3444;stroke-width:6px;"/><path d="M43,139.416l47,0" style="fill:none;stroke:#ff3444;stroke-width:6px;"/></g></svg>