<?xml version="1.0" encoding="UTF-8" standalone="no"?><!DOCTYPE svg PUBLIC "-//W3C//DTD SVG 1.1//EN" "http://www.w3.org/Graphics/SVG/1.1/DTD/svg11.dtd"><svg width="100%" height="100%" viewBox="0 0 171 166" version="1.1" xmlns="http://www.w3.org/2000/svg" xmlns:xlink="http://www.w3.org/1999/xlink" xml:space="preserve" xmlns:serif="http://www.serif.com/" style="fill-rule:evenodd;clip-rule:evenodd;stroke-miterlimit:10;"><g id="Слой-1" serif:id="Слой 1"><path d="M126.024,47.238l19.476,0c6.627,0 12,5.373 12,12l0,85.75" style="fill:none;stroke:#0e1c43;stroke-width:6px;"/><path d="M12.5,145.061l0,-85.823c0,-6.627 5.373,-12 12,-12l19.477,0" style="fill:none;stroke:#0e1c43;stroke-width:6px;"/><path d="M168,145.061l0,5.177c0,6.627 -5.373,12 -12,12l-141,0c-6.627,0 -12,-5.373 -12,-12l0,-5.172l165,-0.005Z" style="fill:none;stroke:#0e1c43;stroke-width:6px;"/><path d="M98.116,153.649c0,1.392 -1.129,2.521 -2.521,2.521l-20.191,0c-1.392,0 -2.52,-1.129 -2.52,-2.521c0,-1.392 1.128,-2.521 2.52,-2.521l20.191,0c1.392,0 2.521,1.129 2.521,2.521" style="fill:#0e1c43;fill-rule:nonzero;"/><path d="M126.024,3l0,90.265l17.059,0l-58.083,34.525l-58.083,-34.525l17.059,0l0,-90.265" style="fill:none;stroke:#ff3444;stroke-width:6px;stroke-linecap:round;stroke-linejoin:round;"/><path d="M108.006,78.286l-6.917,-3.777l-0.799,-0.433l-3.254,-1.777c-1.045,-0.571 -1.694,-1.663 -1.694,-2.853l0,-4.071c0.228,-0.3 0.576,-0.786 0.984,-1.411c0.007,-0.019 0.019,-0.031 0.031,-0.048c0.193,-0.295 0.391,-0.625 0.601,-0.985l0.078,-0.132c0.192,-0.336 0.39,-0.697 0.588,-1.081c0.024,-0.042 0.049,-0.078 0.072,-0.126l0.09,-0.18c0.025,-0.043 0.042,-0.098 0.067,-0.139c0.113,-0.234 0.228,-0.481 0.348,-0.732c0.03,-0.079 0.067,-0.146 0.095,-0.217l0.078,-0.169c0.019,-0.048 0.037,-0.1 0.061,-0.149c0.108,-0.258 0.217,-0.517 0.318,-0.786c0.036,-0.098 0.078,-0.18 0.114,-0.278c0.09,-0.239 0.168,-0.468 0.247,-0.684c0.041,-0.119 0.079,-0.244 0.119,-0.369c0.018,-0.063 0.043,-0.129 0.061,-0.188l0.102,-0.336c0.085,-0.26 0.155,-0.523 0.228,-0.801c0.005,-0.029 0.019,-0.059 0.024,-0.088c0.481,-0.384 0.853,-0.861 1.153,-1.376c0.433,-0.737 0.691,-1.568 0.691,-2.452l0,-4.917c0,-1.18 -0.445,-2.335 -1.231,-3.231l0,-5.356l-0.037,-3.295c-0.18,-1.627 -0.775,-3.9 -2.534,-5.91c-2.528,-2.882 -6.629,-4.341 -12.19,-4.341c-5.56,0 -9.662,1.459 -12.191,4.341c-1.76,2.01 -2.352,4.283 -2.533,5.91l-0.036,3.295l0,5.356c-0.787,0.896 -1.23,2.051 -1.23,3.231l0,4.917c0,0.884 0.258,1.715 0.689,2.452c0.301,0.515 0.674,0.992 1.153,1.376c0.006,0.029 0.017,0.059 0.024,0.088c0.073,0.278 0.144,0.541 0.229,0.801l0.102,0.336c0.02,0.059 0.04,0.125 0.059,0.188c0.043,0.125 0.08,0.25 0.121,0.369c0.077,0.216 0.156,0.445 0.246,0.684c0.037,0.098 0.078,0.18 0.113,0.278c0.104,0.269 0.212,0.528 0.321,0.786c0.023,0.049 0.041,0.101 0.059,0.149l0.077,0.169c0.03,0.071 0.066,0.138 0.096,0.217c0.121,0.251 0.235,0.498 0.349,0.732c0.024,0.041 0.042,0.096 0.066,0.139l0.09,0.18c0.024,0.048 0.048,0.084 0.071,0.126c0.198,0.384 0.399,0.745 0.59,1.081l0.076,0.132c0.211,0.36 0.409,0.69 0.602,0.985c0.012,0.017 0.024,0.029 0.031,0.048c0.408,0.625 0.757,1.111 0.984,1.411l0,4.071c0,1.19 -0.65,2.282 -1.693,2.853l-3.256,1.777l-0.798,0.433l-6.917,3.777c-3.567,1.946 -5.784,5.674 -5.784,9.74l0,5.212l40.433,0c0.026,0 0.05,-0.014 0.078,-0.015c0.026,0.001 0.051,0.015 0.077,0.015l15.992,0l0,-2.463l0,-2.749c0,-4.066 -2.217,-7.794 -5.784,-9.74Z" style="fill:none;stroke:#ff3444;stroke-width:6px;stroke-linecap:round;stroke-linejoin:round;"/></g></svg>