<?xml version="1.0" encoding="UTF-8" standalone="no"?><!DOCTYPE svg PUBLIC "-//W3C//DTD SVG 1.1//EN" "http://www.w3.org/Graphics/SVG/1.1/DTD/svg11.dtd"><svg width="100%" height="100%" viewBox="0 0 44 45" version="1.1" xmlns="http://www.w3.org/2000/svg" xmlns:xlink="http://www.w3.org/1999/xlink" xml:space="preserve" xmlns:serif="http://www.serif.com/" style="fill-rule:evenodd;clip-rule:evenodd;stroke-linejoin:round;stroke-miterlimit:1.41421;"><g id="Слой-1" serif:id="Слой 1"><path d="M1.758,4.453l8.842,0l0,1.706c0,0.484 0.394,0.878 0.879,0.878c0.485,0 0.88,-0.394 0.88,-0.878l0,-1.706l8.56,0l0,1.706c0,0.484 0.394,0.878 0.878,0.878c0.486,0 0.881,-0.394 0.881,-0.878l0,-1.706l8.896,0l0,1.706c0,0.484 0.395,0.878 0.881,0.878c0.485,0 0.879,-0.394 0.879,-0.878l0,-1.706l8.503,0l0,6.511l-40.079,0l0,-6.511Zm0,28.921l0,-20.654l40.079,0l0,20.654l-7.703,0c-0.02,0.283 -0.048,0.562 -0.086,0.839c-0.012,0.085 -0.026,0.167 -0.039,0.25c-0.035,0.223 -0.065,0.448 -0.112,0.667l8.82,0c0.484,0 0.878,-0.393 0.878,-0.877l0,-30.68c0,-0.233 -0.091,-0.453 -0.256,-0.62c-0.167,-0.166 -0.388,-0.257 -0.622,-0.257l-9.383,0l0,-1.818c0,-0.484 -0.394,-0.878 -0.879,-0.878c-0.486,0 -0.881,0.394 -0.881,0.878l0,1.818l-8.896,0l0,-1.818c0,-0.484 -0.395,-0.878 -0.881,-0.878c-0.484,0 -0.878,0.394 -0.878,0.878l0,1.818l-8.56,0l0,-1.818c0,-0.484 -0.395,-0.878 -0.88,-0.878c-0.485,0 -0.879,0.394 -0.879,0.878l0,1.818l-9.721,0c-0.484,0 -0.879,0.394 -0.879,0.877l0,30.68c0,0.484 0.395,0.877 0.879,0.877l8.834,0c-0.042,-0.196 -0.07,-0.396 -0.102,-0.595c-0.019,-0.118 -0.039,-0.234 -0.055,-0.355c-0.035,-0.265 -0.062,-0.531 -0.08,-0.8c0,-0.002 -0.001,-0.004 -0.001,-0.006l-7.717,0Z" style="fill:#354a8a;fill-rule:nonzero;"/><path d="M21.804,43.166c-5.876,0 -10.657,-4.78 -10.657,-10.655c0,-5.876 4.781,-10.657 10.657,-10.657c5.875,0 10.655,4.781 10.655,10.657c0,5.875 -4.78,10.655 -10.655,10.655m0,-23.064c-6.842,0 -12.408,5.566 -12.408,12.409c0,0.28 0.024,0.555 0.042,0.832c0.019,0.29 0.049,0.566 0.083,0.836c0.015,0.108 0.033,0.215 0.05,0.322c0.035,0.223 0.069,0.444 0.116,0.658c1.218,5.572 6.185,9.76 12.117,9.76c5.915,0 10.869,-4.163 12.104,-9.711l0.01,-0.043c0.052,-0.235 0.092,-0.48 0.129,-0.729c0.012,-0.074 0.024,-0.148 0.034,-0.223c0.038,-0.284 0.069,-0.576 0.089,-0.887l0.003,-0.035c0.016,-0.259 0.039,-0.517 0.039,-0.78c0,-6.843 -5.566,-12.409 -12.408,-12.409" style="fill:#ff3444;fill-rule:nonzero;"/><path d="M22.678,33.209l0,-6.767c0,-0.483 -0.395,-0.877 -0.881,-0.877c-0.484,0 -0.878,0.394 -0.878,0.877l0,7.13c0,0.236 0.092,0.457 0.257,0.623l3.123,3.12c0.157,0.158 0.383,0.248 0.622,0.248c0.236,0 0.463,-0.09 0.621,-0.248c0.166,-0.166 0.258,-0.386 0.258,-0.621c0,-0.233 -0.092,-0.452 -0.258,-0.618l-2.864,-2.867Z" style="fill:#ff3444;fill-rule:nonzero;"/></g></svg>