<?xml version="1.0" encoding="UTF-8" standalone="no"?><!DOCTYPE svg PUBLIC "-//W3C//DTD SVG 1.1//EN" "http://www.w3.org/Graphics/SVG/1.1/DTD/svg11.dtd"><svg width="100%" height="100%" viewBox="0 0 46 45" version="1.1" xmlns="http://www.w3.org/2000/svg" xmlns:xlink="http://www.w3.org/1999/xlink" xml:space="preserve" xmlns:serif="http://www.serif.com/" style="fill-rule:evenodd;clip-rule:evenodd;stroke-linejoin:round;stroke-miterlimit:1.41421;"><g id="Слой-1" serif:id="Слой 1"><path d="M39.988,33.629c0.452,0 0.82,-0.367 0.82,-0.819c0,-0.452 -0.368,-0.821 -0.82,-0.821l-19.486,0c-0.031,0.044 -0.066,0.083 -0.097,0.127c-0.109,0.15 -0.223,0.294 -0.338,0.439c-0.121,0.15 -0.24,0.3 -0.366,0.443c-0.041,0.046 -0.084,0.089 -0.125,0.134c-0.152,0.169 -0.302,0.341 -0.463,0.497l20.875,0Z" style="fill:#23478c;fill-rule:nonzero;"/><path d="M39.988,12.711c0.452,0 0.82,-0.368 0.82,-0.821c0,-0.452 -0.368,-0.82 -0.82,-0.82l-24.047,0c-0.452,0 -0.82,0.368 -0.82,0.82c0,0.453 0.368,0.821 0.82,0.821l24.047,0Z" style="fill:#23478c;fill-rule:nonzero;"/><path d="M40.042,16.301l-9.843,0c-0.451,0 -0.82,0.367 -0.82,0.819c0,0.452 0.369,0.821 0.82,0.821l9.842,0c0.452,0 0.82,-0.369 0.82,-0.821c0,-0.452 -0.368,-0.819 -0.82,-0.819" style="fill:#23478c;fill-rule:nonzero;"/><path d="M40.042,26.76l-9.843,0c-0.451,0 -0.82,0.367 -0.82,0.819c0,0.452 0.369,0.821 0.82,0.821l9.842,0c0.452,0 0.82,-0.369 0.82,-0.821c0,-0.452 -0.368,-0.819 -0.82,-0.819" style="fill:#23478c;fill-rule:nonzero;"/><path d="M40.808,22.352c0,-0.453 -0.368,-0.821 -0.82,-0.821l-17.988,0c0.093,0.258 0.178,0.517 0.252,0.783c0.022,0.077 0.039,0.153 0.059,0.229c0.054,0.208 0.111,0.414 0.153,0.627l17.524,0c0.452,0 0.82,-0.367 0.82,-0.818" style="fill:#23478c;fill-rule:nonzero;"/><path d="M25.783,17.94c0.452,0 0.819,-0.368 0.819,-0.82c0,-0.452 -0.367,-0.82 -0.819,-0.82l-7.79,0c0.314,0.242 0.615,0.497 0.902,0.769c0.007,0.007 0.014,0.013 0.021,0.019c0.278,0.264 0.542,0.54 0.792,0.831c0.006,0.007 0.014,0.013 0.02,0.021l6.055,0Z" style="fill:#23478c;fill-rule:nonzero;"/><path d="M22.272,28.399l3.511,0c0.451,0 0.819,-0.368 0.819,-0.82c0,-0.452 -0.368,-0.82 -0.819,-0.82l-3.196,0c-0.002,0.017 -0.003,0.033 -0.004,0.049c-0.005,0.058 -0.011,0.116 -0.018,0.17c-0.006,0.045 -0.012,0.089 -0.021,0.134l-0.011,0.074c-0.032,0.221 -0.07,0.455 -0.119,0.675l-0.009,0.037c-0.035,0.157 -0.079,0.312 -0.12,0.46l-0.012,0.041Z" style="fill:#23478c;fill-rule:nonzero;"/><path d="M12.186,2.991c0,-0.718 0.584,-1.302 1.302,-1.302l28.964,0c0.717,0 1.301,0.584 1.301,1.302l0,3.453l-31.567,0l0,-3.453Zm26.127,39.465l0,-2.9c0,-0.717 0.584,-1.301 1.302,-1.301l3.307,0l-4.609,4.201Zm-26.127,-34.321l31.567,0l0,28.43l-4.138,0c-1.65,0 -2.992,1.342 -2.992,2.991l0,3.604l-23.135,0c-0.718,0 -1.302,-0.584 -1.302,-1.301l0,-5.154c-0.315,0.023 -0.581,0.035 -0.845,0.035c-0.265,0 -0.53,-0.012 -0.844,-0.035l0,5.154c0,1.65 1.341,2.99 2.991,2.99l24.381,0c0.211,0 0.413,-0.078 0.569,-0.219l6.73,-6.135c0.175,-0.16 0.275,-0.389 0.275,-0.626l0,-34.878c0,-1.649 -1.342,-2.991 -2.991,-2.991l-28.964,0c-1.65,0 -2.991,1.342 -2.991,2.991l0,11.194c0.059,-0.005 0.118,-0.004 0.177,-0.006c0.222,-0.014 0.442,-0.035 0.667,-0.035c0.223,0 0.442,0.021 0.662,0.034c0.061,0.003 0.122,0.002 0.183,0.007l0,-6.05Z" style="fill:#23478c;fill-rule:nonzero;"/><path d="M11.341,35.281c-5.448,0 -9.88,-4.432 -9.88,-9.879c0,-5.447 4.432,-9.88 9.88,-9.88c5.447,0 9.878,4.433 9.878,9.88c0,5.447 -4.431,9.879 -9.878,9.879m8.342,-2.235c0.039,-0.043 0.081,-0.082 0.12,-0.126c0.11,-0.123 0.21,-0.254 0.315,-0.382c0.144,-0.179 0.288,-0.359 0.424,-0.549c0.741,-1.027 1.315,-2.186 1.679,-3.439l0.007,-0.028c0.063,-0.217 0.128,-0.432 0.177,-0.655l0.007,-0.037c0.049,-0.217 0.086,-0.448 0.119,-0.666l0.012,-0.076c0.007,-0.043 0.014,-0.086 0.02,-0.13c0.01,-0.077 0.014,-0.146 0.022,-0.221c0.002,-0.02 0.004,-0.041 0.006,-0.06l0.004,-0.043c0.018,-0.163 0.038,-0.33 0.049,-0.485l0.015,-0.214c0.012,-0.174 0.023,-0.354 0.023,-0.533c0,-0.733 -0.076,-1.449 -0.209,-2.144c-0.046,-0.241 -0.108,-0.483 -0.174,-0.728c-0.016,-0.062 -0.03,-0.125 -0.047,-0.187c-0.081,-0.281 -0.174,-0.567 -0.283,-0.862l-0.037,-0.101c-0.461,-1.208 -1.114,-2.32 -1.935,-3.289l-0.003,0l-0.022,-0.027c-0.272,-0.319 -0.567,-0.626 -0.879,-0.918c-0.016,-0.014 -0.032,-0.028 -0.047,-0.043c-0.312,-0.287 -0.641,-0.561 -0.988,-0.817l-0.183,-0.136l0.003,0c-1.595,-1.13 -3.489,-1.858 -5.541,-2.038l0,0.002l-0.081,-0.006c-0.307,-0.025 -0.607,-0.047 -0.915,-0.047c-0.307,0 -0.607,0.022 -0.914,0.047l-0.081,0.006l0,-0.002c-5.788,0.506 -10.346,5.372 -10.346,11.29c0,0.203 0.014,0.406 0.027,0.603l0.011,0.159c0.017,0.241 0.042,0.491 0.076,0.763c0.014,0.098 0.03,0.196 0.046,0.292c0.03,0.191 0.063,0.406 0.106,0.603c1.058,4.843 5.213,8.441 10.08,8.877l0,-0.002l0.081,0.006c0.012,0.001 0.02,0.001 0.032,0.002c0.292,0.023 0.586,0.039 0.882,0.039c0.297,0 0.592,-0.016 0.884,-0.039c0.011,-0.001 0.02,-0.001 0.031,-0.002l0.081,-0.006l0,0.002c2.854,-0.257 5.462,-1.606 7.346,-3.653" style="fill:#f44;fill-rule:nonzero;"/><path d="M16.793,20.809c-0.226,0 -0.438,0.087 -0.597,0.246l-6.903,6.902l-0.053,-0.053l-2.754,-2.753c-0.159,-0.159 -0.372,-0.246 -0.598,-0.246c-0.225,0 -0.438,0.087 -0.598,0.246c-0.329,0.33 -0.329,0.866 0.001,1.195l3.405,3.405c0.16,0.159 0.372,0.246 0.597,0.246c0.227,0 0.439,-0.086 0.598,-0.246l7.499,-7.5c0.329,-0.329 0.329,-0.865 0,-1.196c-0.159,-0.159 -0.371,-0.246 -0.597,-0.246" style="fill:#f44;fill-rule:nonzero;"/><path d="M20.298,32.555c0.116,-0.145 0.229,-0.289 0.338,-0.438c-0.109,0.15 -0.224,0.293 -0.338,0.438" style="fill:#23478c;fill-rule:nonzero;"/><path d="M19.808,33.132c0.042,-0.045 0.084,-0.088 0.125,-0.134c-0.041,0.046 -0.083,0.089 -0.125,0.134" style="fill:#23478c;fill-rule:nonzero;"/><path d="M22.461,23.17l0.002,0c-0.042,-0.213 -0.043,-0.207 -0.002,0" style="fill:#23478c;fill-rule:nonzero;"/><path d="M22.147,21.53c0.095,0.267 0.092,0.258 -0.001,0Z" style="fill:#23478c;fill-rule:nonzero;"/><path d="M19.252,17.089c0.28,0.265 0.544,0.543 0.792,0.83c-0.25,-0.29 -0.515,-0.566 -0.793,-0.83" style="fill:#23478c;fill-rule:nonzero;"/><path d="M18.327,16.301c0.316,0.242 0.617,0.5 0.903,0.769c-0.287,-0.272 -0.588,-0.528 -0.902,-0.769l-0.001,0Z" style="fill:#23478c;fill-rule:nonzero;"/><path d="M10.674,14.179c0.443,-0.029 0.886,-0.029 1.329,-0.001c-0.221,-0.013 -0.439,-0.033 -0.662,-0.033c-0.226,0 -0.445,0.02 -0.667,0.034" style="fill:#23478c;fill-rule:nonzero;"/><path d="M11.342,36.739l-0.001,0l0.001,0.001l0,-0.001Z" style="fill:#23478c;"/></g></svg>