<?xml version="1.0" encoding="UTF-8" standalone="no"?><!DOCTYPE svg PUBLIC "-//W3C//DTD SVG 1.1//EN" "http://www.w3.org/Graphics/SVG/1.1/DTD/svg11.dtd"><svg width="100%" height="100%" viewBox="0 0 169 167" version="1.1" xmlns="http://www.w3.org/2000/svg" xmlns:xlink="http://www.w3.org/1999/xlink" xml:space="preserve" xmlns:serif="http://www.serif.com/" style="fill-rule:evenodd;clip-rule:evenodd;stroke-miterlimit:10;"><g id="Слой-1" serif:id="Слой 1"><path d="M134.902,93.577l0,55.696" style="fill:none;stroke:#0e1c43;stroke-width:6px;"/><path d="M11.11,149.335l0,-73.271c0,-5.657 4.588,-10.245 10.245,-10.245l19.145,0" style="fill:none;stroke:#0e1c43;stroke-width:6px;"/><path d="M143.867,149.335l0,4.421c0,5.656 -4.588,10.244 -10.245,10.244l-120.378,0c-5.658,0 -10.244,-4.588 -10.244,-10.244l0,-4.416l140.867,-0.005Z" style="fill:none;stroke:#0e1c43;stroke-width:6px;"/><path d="M82.873,156.743c0,1.086 -0.88,1.967 -1.966,1.967l-15.799,0c-1.087,0 -1.967,-0.881 -1.967,-1.967c0,-1.087 0.88,-1.967 1.967,-1.967l15.799,0c1.086,0 1.966,0.88 1.966,1.967" style="fill:#0e1c43;fill-rule:nonzero;"/><path d="M117.723,48.718l-4.524,-2.471l-0.523,-0.283l-2.129,-1.163c-0.683,-0.373 -1.108,-1.088 -1.108,-1.866l0,-2.663c0.149,-0.196 0.377,-0.514 0.643,-0.923c0.005,-0.012 0.013,-0.02 0.021,-0.031c0.126,-0.193 0.256,-0.409 0.393,-0.645l0.051,-0.086c0.125,-0.22 0.255,-0.456 0.385,-0.708c0.015,-0.027 0.031,-0.051 0.047,-0.082l0.058,-0.118c0.017,-0.028 0.028,-0.063 0.044,-0.09c0.075,-0.154 0.15,-0.315 0.228,-0.479c0.019,-0.052 0.044,-0.096 0.062,-0.142l0.051,-0.111c0.013,-0.031 0.025,-0.066 0.04,-0.097c0.071,-0.169 0.142,-0.338 0.208,-0.515c0.024,-0.064 0.051,-0.117 0.074,-0.181c0.06,-0.157 0.111,-0.306 0.163,-0.448c0.026,-0.078 0.05,-0.16 0.077,-0.242c0.012,-0.04 0.028,-0.084 0.04,-0.123l0.066,-0.219c0.056,-0.169 0.102,-0.342 0.15,-0.524c0.004,-0.019 0.012,-0.039 0.015,-0.057c0.316,-0.253 0.559,-0.564 0.755,-0.9c0.283,-0.483 0.452,-1.026 0.452,-1.604l0,-3.217c0,-0.773 -0.291,-1.528 -0.805,-2.114l0,-3.503l-0.025,-2.156c-0.117,-1.065 -0.507,-2.552 -1.658,-3.867c-1.652,-1.886 -4.336,-2.84 -7.974,-2.84c-3.637,0 -6.321,0.954 -7.975,2.84c-1.151,1.315 -1.538,2.802 -1.657,3.867l-0.023,2.156l0,3.503c-0.516,0.586 -0.806,1.341 -0.806,2.114l0,3.217c0,0.578 0.169,1.121 0.452,1.604c0.197,0.336 0.44,0.647 0.753,0.9c0.004,0.018 0.013,0.038 0.017,0.057c0.047,0.182 0.094,0.355 0.149,0.524l0.067,0.219c0.013,0.039 0.026,0.083 0.039,0.123c0.027,0.082 0.052,0.164 0.079,0.242c0.05,0.142 0.103,0.291 0.161,0.448c0.024,0.064 0.051,0.117 0.074,0.181c0.068,0.177 0.138,0.346 0.209,0.515c0.016,0.031 0.027,0.066 0.039,0.097l0.05,0.111c0.021,0.046 0.043,0.09 0.064,0.142c0.079,0.164 0.153,0.325 0.227,0.479c0.016,0.027 0.029,0.062 0.044,0.09l0.059,0.118c0.016,0.031 0.03,0.055 0.047,0.082c0.13,0.252 0.26,0.488 0.385,0.708l0.049,0.086c0.139,0.236 0.269,0.452 0.395,0.645c0.008,0.011 0.015,0.019 0.019,0.031c0.268,0.409 0.496,0.727 0.645,0.923l0,2.663c0,0.778 -0.426,1.493 -1.108,1.866l-2.129,1.163l-0.523,0.283l-4.525,2.471c-2.333,1.273 -3.783,3.712 -3.783,6.372l0,3.41l26.45,0c0.017,0 0.033,-0.01 0.05,-0.011c0.018,0.001 0.034,0.011 0.051,0.011l10.463,0l0,-1.612l0,-1.798c0,-2.66 -1.451,-5.099 -3.785,-6.372Z" style="fill:none;stroke:#ff3444;stroke-width:6px;stroke-linecap:round;stroke-linejoin:round;"/><path d="M64.469,93.577l0,18.923l23.044,-18.923l65.987,0c6.627,0 12,-5.372 12,-12l0,-66.577c0,-6.628 -5.373,-12 -12,-12l-101,0c-6.628,0 -12,5.372 -12,12l0,66.577c0,6.628 5.372,12 12,12l11.969,0Z" style="fill:none;stroke:#ff3444;stroke-width:6px;stroke-linecap:round;stroke-linejoin:round;"/><path d="M60.5,70.5l85,0" style="fill:none;stroke:#ff3444;stroke-width:6px;stroke-linecap:round;stroke-linejoin:round;"/><path d="M60.5,81.5l85,0" style="fill:none;stroke:#ff3444;stroke-width:6px;stroke-linecap:round;stroke-linejoin:round;"/></g></svg>